<svg width="278" height="39" viewBox="0 0 278 39" fill="none" xmlns="http://www.w3.org/2000/svg">
<path d="M3.648 31V8.6H12.768C15.1573 8.6 17.248 9.08 19.04 10.04C20.8533 10.9787 22.2613 12.2907 23.264 13.976C24.2667 15.6613 24.768 17.6027 24.768 19.8C24.768 21.9973 24.2667 23.9387 23.264 25.624C22.2613 27.3093 20.8533 28.632 19.04 29.592C17.248 30.5307 15.1573 31 12.768 31H3.648ZM6.016 28.952H12.64C14.624 28.952 16.3413 28.568 17.792 27.8C19.264 27.0107 20.4053 25.9333 21.216 24.568C22.0267 23.1813 22.432 21.592 22.432 19.8C22.432 17.9867 22.0267 16.3973 21.216 15.032C20.4053 13.6667 19.264 12.6 17.792 11.832C16.3413 11.0427 14.624 10.648 12.64 10.648H6.016V28.952ZM29.6055 31V14.2H31.7815V18.776L31.5575 17.976C32.0268 16.696 32.8162 15.7253 33.9255 15.064C35.0348 14.3813 36.4108 14.04 38.0535 14.04V16.248C37.9682 16.248 37.8828 16.248 37.7975 16.248C37.7122 16.2267 37.6268 16.216 37.5415 16.216C35.7708 16.216 34.3842 16.76 33.3815 17.848C32.3788 18.9147 31.8775 20.44 31.8775 22.424V31H29.6055ZM42.1993 31V14.2H44.4713V31H42.1993ZM43.3513 10.488C42.8819 10.488 42.4873 10.328 42.1673 10.008C41.8473 9.688 41.6873 9.304 41.6873 8.856C41.6873 8.408 41.8473 8.03466 42.1673 7.736C42.4873 7.416 42.8819 7.256 43.3513 7.256C43.8206 7.256 44.2153 7.40533 44.5353 7.704C44.8553 8.00267 45.0153 8.376 45.0153 8.824C45.0153 9.29333 44.8553 9.688 44.5353 10.008C44.2366 10.328 43.8419 10.488 43.3513 10.488ZM55.113 31L47.657 14.2H50.025L56.873 29.784H55.753L62.697 14.2H64.937L57.449 31H55.113ZM74.804 31.16C73.0547 31.16 71.5187 30.7973 70.196 30.072C68.8733 29.3253 67.8387 28.312 67.092 27.032C66.3453 25.7307 65.972 24.248 65.972 22.584C65.972 20.92 66.324 19.448 67.028 18.168C67.7533 16.888 68.7347 15.8853 69.972 15.16C71.2307 14.4133 72.6387 14.04 74.196 14.04C75.7747 14.04 77.172 14.4027 78.388 15.128C79.6253 15.832 80.596 16.8347 81.3 18.136C82.004 19.416 82.356 20.8987 82.356 22.584C82.356 22.6907 82.3453 22.808 82.324 22.936C82.324 23.0427 82.324 23.16 82.324 23.288H67.7V21.592H81.108L80.212 22.264C80.212 21.048 79.9453 19.9707 79.412 19.032C78.9 18.072 78.196 17.3253 77.3 16.792C76.404 16.2587 75.3693 15.992 74.196 15.992C73.044 15.992 72.0093 16.2587 71.092 16.792C70.1747 17.3253 69.46 18.072 68.948 19.032C68.436 19.992 68.18 21.0907 68.18 22.328V22.68C68.18 23.96 68.4573 25.0907 69.012 26.072C69.588 27.032 70.3773 27.7893 71.38 28.344C72.404 28.8773 73.5667 29.144 74.868 29.144C75.892 29.144 76.8413 28.9627 77.716 28.6C78.612 28.2373 79.38 27.6827 80.02 26.936L81.3 28.408C80.5533 29.304 79.6147 29.9867 78.484 30.456C77.3747 30.9253 76.148 31.16 74.804 31.16ZM86.9805 31V14.2H89.1565V18.776L88.9325 17.976C89.4018 16.696 90.1912 15.7253 91.3005 15.064C92.4098 14.3813 93.7858 14.04 95.4285 14.04V16.248C95.3432 16.248 95.2578 16.248 95.1725 16.248C95.0872 16.2267 95.0018 16.216 94.9165 16.216C93.1458 16.216 91.7592 16.76 90.7565 17.848C89.7538 18.9147 89.2525 20.44 89.2525 22.424V31H86.9805Z" fill="#333333"/>
<path d="M97.712 31L107.696 8.6H112.816L122.832 31H117.392L109.2 11.224H111.248L103.024 31H97.712ZM102.704 26.2L104.08 22.264H115.6L117.008 26.2H102.704ZM130.44 31.256C128.968 31.256 127.549 31.0853 126.184 30.744C124.84 30.3813 123.773 29.9333 122.984 29.4L124.648 25.816C125.437 26.3067 126.365 26.712 127.432 27.032C128.52 27.3307 129.586 27.48 130.632 27.48C131.784 27.48 132.594 27.3413 133.064 27.064C133.554 26.7867 133.8 26.4027 133.8 25.912C133.8 25.5067 133.608 25.208 133.224 25.016C132.861 24.8027 132.37 24.6427 131.752 24.536C131.133 24.4293 130.45 24.3227 129.704 24.216C128.978 24.1093 128.242 23.9707 127.496 23.8C126.749 23.608 126.066 23.3307 125.448 22.968C124.829 22.6053 124.328 22.1147 123.944 21.496C123.581 20.8773 123.4 20.0773 123.4 19.096C123.4 18.008 123.709 17.048 124.328 16.216C124.968 15.384 125.885 14.7333 127.08 14.264C128.274 13.7733 129.704 13.528 131.368 13.528C132.541 13.528 133.736 13.656 134.952 13.912C136.168 14.168 137.181 14.5413 137.992 15.032L136.328 18.584C135.496 18.0933 134.653 17.7627 133.8 17.592C132.968 17.4 132.157 17.304 131.368 17.304C130.258 17.304 129.448 17.4533 128.936 17.752C128.424 18.0507 128.168 18.4347 128.168 18.904C128.168 19.3307 128.349 19.6507 128.712 19.864C129.096 20.0773 129.597 20.248 130.216 20.376C130.834 20.504 131.506 20.6213 132.232 20.728C132.978 20.8133 133.725 20.952 134.472 21.144C135.218 21.336 135.89 21.6133 136.488 21.976C137.106 22.3173 137.608 22.7973 137.992 23.416C138.376 24.0133 138.568 24.8027 138.568 25.784C138.568 26.8507 138.248 27.8 137.608 28.632C136.968 29.4427 136.04 30.0827 134.824 30.552C133.629 31.0213 132.168 31.256 130.44 31.256ZM147.44 31.256C145.968 31.256 144.549 31.0853 143.184 30.744C141.84 30.3813 140.773 29.9333 139.984 29.4L141.648 25.816C142.437 26.3067 143.365 26.712 144.432 27.032C145.52 27.3307 146.586 27.48 147.632 27.48C148.784 27.48 149.594 27.3413 150.064 27.064C150.554 26.7867 150.8 26.4027 150.8 25.912C150.8 25.5067 150.608 25.208 150.224 25.016C149.861 24.8027 149.37 24.6427 148.752 24.536C148.133 24.4293 147.45 24.3227 146.704 24.216C145.978 24.1093 145.242 23.9707 144.496 23.8C143.749 23.608 143.066 23.3307 142.448 22.968C141.829 22.6053 141.328 22.1147 140.944 21.496C140.581 20.8773 140.4 20.0773 140.4 19.096C140.4 18.008 140.709 17.048 141.328 16.216C141.968 15.384 142.885 14.7333 144.08 14.264C145.274 13.7733 146.704 13.528 148.368 13.528C149.541 13.528 150.736 13.656 151.952 13.912C153.168 14.168 154.181 14.5413 154.992 15.032L153.328 18.584C152.496 18.0933 151.653 17.7627 150.8 17.592C149.968 17.4 149.157 17.304 148.368 17.304C147.258 17.304 146.448 17.4533 145.936 17.752C145.424 18.0507 145.168 18.4347 145.168 18.904C145.168 19.3307 145.349 19.6507 145.712 19.864C146.096 20.0773 146.597 20.248 147.216 20.376C147.834 20.504 148.506 20.6213 149.232 20.728C149.978 20.8133 150.725 20.952 151.472 21.144C152.218 21.336 152.89 21.6133 153.488 21.976C154.106 22.3173 154.608 22.7973 154.992 23.416C155.376 24.0133 155.568 24.8027 155.568 25.784C155.568 26.8507 155.248 27.8 154.608 28.632C153.968 29.4427 153.04 30.0827 151.824 30.552C150.629 31.0213 149.168 31.256 147.44 31.256ZM158.648 31V13.784H163.64V31H158.648ZM161.144 11.384C160.226 11.384 159.48 11.1173 158.904 10.584C158.328 10.0507 158.04 9.38933 158.04 8.6C158.04 7.81067 158.328 7.14933 158.904 6.616C159.48 6.08267 160.226 5.816 161.144 5.816C162.061 5.816 162.808 6.072 163.384 6.584C163.96 7.07467 164.248 7.71467 164.248 8.504C164.248 9.336 163.96 10.0293 163.384 10.584C162.829 11.1173 162.082 11.384 161.144 11.384ZM174.065 31.256C172.593 31.256 171.174 31.0853 169.809 30.744C168.465 30.3813 167.398 29.9333 166.609 29.4L168.273 25.816C169.062 26.3067 169.99 26.712 171.057 27.032C172.145 27.3307 173.211 27.48 174.257 27.48C175.409 27.48 176.219 27.3413 176.689 27.064C177.179 26.7867 177.425 26.4027 177.425 25.912C177.425 25.5067 177.233 25.208 176.849 25.016C176.486 24.8027 175.995 24.6427 175.377 24.536C174.758 24.4293 174.075 24.3227 173.329 24.216C172.603 24.1093 171.867 23.9707 171.121 23.8C170.374 23.608 169.691 23.3307 169.073 22.968C168.454 22.6053 167.953 22.1147 167.569 21.496C167.206 20.8773 167.025 20.0773 167.025 19.096C167.025 18.008 167.334 17.048 167.953 16.216C168.593 15.384 169.51 14.7333 170.705 14.264C171.899 13.7733 173.329 13.528 174.993 13.528C176.166 13.528 177.361 13.656 178.577 13.912C179.793 14.168 180.806 14.5413 181.617 15.032L179.953 18.584C179.121 18.0933 178.278 17.7627 177.425 17.592C176.593 17.4 175.782 17.304 174.993 17.304C173.883 17.304 173.073 17.4533 172.561 17.752C172.049 18.0507 171.793 18.4347 171.793 18.904C171.793 19.3307 171.974 19.6507 172.337 19.864C172.721 20.0773 173.222 20.248 173.841 20.376C174.459 20.504 175.131 20.6213 175.857 20.728C176.603 20.8133 177.35 20.952 178.097 21.144C178.843 21.336 179.515 21.6133 180.113 21.976C180.731 22.3173 181.233 22.7973 181.617 23.416C182.001 24.0133 182.193 24.8027 182.193 25.784C182.193 26.8507 181.873 27.8 181.233 28.632C180.593 29.4427 179.665 30.0827 178.449 30.552C177.254 31.0213 175.793 31.256 174.065 31.256ZM192.313 31.256C190.286 31.256 188.707 30.744 187.577 29.72C186.446 28.6747 185.881 27.128 185.881 25.08V9.976H190.873V25.016C190.873 25.7413 191.065 26.3067 191.449 26.712C191.833 27.096 192.355 27.288 193.017 27.288C193.806 27.288 194.478 27.0747 195.033 26.648L196.377 30.168C195.865 30.5307 195.246 30.808 194.521 31C193.817 31.1707 193.081 31.256 192.313 31.256ZM183.225 18.008V14.168H195.161V18.008H183.225ZM209.739 31V27.64L209.419 26.904V20.888C209.419 19.8213 209.088 18.9893 208.427 18.392C207.787 17.7947 206.795 17.496 205.451 17.496C204.534 17.496 203.627 17.6453 202.731 17.944C201.856 18.2213 201.11 18.6053 200.491 19.096L198.699 15.608C199.638 14.9467 200.768 14.4347 202.091 14.072C203.414 13.7093 204.758 13.528 206.123 13.528C208.747 13.528 210.784 14.1467 212.235 15.384C213.686 16.6213 214.411 18.552 214.411 21.176V31H209.739ZM204.491 31.256C203.147 31.256 201.995 31.032 201.035 30.584C200.075 30.1147 199.339 29.4853 198.827 28.696C198.315 27.9067 198.059 27.0213 198.059 26.04C198.059 25.016 198.304 24.12 198.795 23.352C199.307 22.584 200.107 21.9867 201.195 21.56C202.283 21.112 203.702 20.888 205.451 20.888H210.027V23.8H205.995C204.822 23.8 204.011 23.992 203.563 24.376C203.136 24.76 202.923 25.24 202.923 25.816C202.923 26.456 203.168 26.968 203.659 27.352C204.171 27.7147 204.864 27.896 205.739 27.896C206.571 27.896 207.318 27.704 207.979 27.32C208.64 26.9147 209.12 26.328 209.419 25.56L210.187 27.864C209.824 28.9733 209.163 29.816 208.203 30.392C207.243 30.968 206.006 31.256 204.491 31.256ZM229.393 13.528C230.758 13.528 231.974 13.8053 233.041 14.36C234.129 14.8933 234.982 15.7253 235.601 16.856C236.22 17.9653 236.529 19.3947 236.529 21.144V31H231.537V21.912C231.537 20.5253 231.228 19.5013 230.609 18.84C230.012 18.1787 229.158 17.848 228.049 17.848C227.26 17.848 226.545 18.0187 225.905 18.36C225.286 18.68 224.796 19.1813 224.433 19.864C224.092 20.5467 223.921 21.4213 223.921 22.488V31H218.929V13.784H223.697V18.552L222.801 17.112C223.42 15.96 224.305 15.0747 225.457 14.456C226.609 13.8373 227.921 13.528 229.393 13.528ZM249.499 31.256C247.643 31.256 245.99 30.8827 244.539 30.136C243.088 29.368 241.947 28.312 241.115 26.968C240.304 25.624 239.899 24.0987 239.899 22.392C239.899 20.664 240.304 19.1387 241.115 17.816C241.947 16.472 243.088 15.4267 244.539 14.68C245.99 13.912 247.643 13.528 249.499 13.528C251.312 13.528 252.891 13.912 254.235 14.68C255.579 15.4267 256.571 16.504 257.211 17.912L253.339 19.992C252.891 19.1813 252.326 18.584 251.643 18.2C250.982 17.816 250.256 17.624 249.467 17.624C248.614 17.624 247.846 17.816 247.163 18.2C246.48 18.584 245.936 19.128 245.531 19.832C245.147 20.536 244.955 21.3893 244.955 22.392C244.955 23.3947 245.147 24.248 245.531 24.952C245.936 25.656 246.48 26.2 247.163 26.584C247.846 26.968 248.614 27.16 249.467 27.16C250.256 27.16 250.982 26.9787 251.643 26.616C252.326 26.232 252.891 25.624 253.339 24.792L257.211 26.904C256.571 28.2907 255.579 29.368 254.235 30.136C252.891 30.8827 251.312 31.256 249.499 31.256ZM268.411 31.256C266.448 31.256 264.72 30.872 263.227 30.104C261.755 29.336 260.613 28.2907 259.803 26.968C258.992 25.624 258.587 24.0987 258.587 22.392C258.587 20.664 258.981 19.1387 259.771 17.816C260.581 16.472 261.68 15.4267 263.067 14.68C264.453 13.912 266.021 13.528 267.771 13.528C269.456 13.528 270.971 13.8907 272.315 14.616C273.68 15.32 274.757 16.344 275.547 17.688C276.336 19.0107 276.731 20.6 276.731 22.456C276.731 22.648 276.72 22.872 276.699 23.128C276.677 23.3627 276.656 23.5867 276.635 23.8H262.651V20.888H274.01L272.091 21.752C272.091 20.856 271.909 20.0773 271.547 19.416C271.184 18.7547 270.683 18.2427 270.043 17.88C269.403 17.496 268.656 17.304 267.803 17.304C266.949 17.304 266.192 17.496 265.531 17.88C264.891 18.2427 264.389 18.7653 264.027 19.448C263.664 20.1093 263.483 20.8987 263.483 21.816V22.584C263.483 23.5227 263.685 24.3547 264.091 25.08C264.517 25.784 265.104 26.328 265.851 26.712C266.619 27.0747 267.515 27.256 268.539 27.256C269.456 27.256 270.256 27.1173 270.939 26.84C271.643 26.5627 272.283 26.1467 272.859 25.592L275.515 28.472C274.725 29.368 273.733 30.0613 272.539 30.552C271.344 31.0213 269.968 31.256 268.411 31.256Z" fill="#C8242B"/>
</svg>
